<svg width="60" height="60" viewBox="0 0 60 60" fill="none" xmlns="http://www.w3.org/2000/svg">
<path d="M7.5 24.9999L12.5 24.9999L15.3751 29.9999M15.3751 29.9999H52.1249C51.33 33.9162 49.3144 37.3892 46.4927 40.0046M15.3751 29.9999C16.17 33.9162 18.1856 37.3892 21.0073 40.0046M21.0073 40.0046C17.668 40.1321 15 42.8794 15 46.2499C15 49.7017 17.7982 52.4999 21.25 52.4999C24.7018 52.4999 27.5 49.7017 27.5 46.2499C27.5 45.3566 27.3126 44.5071 26.9749 43.7385M21.0073 40.0046C21.0878 40.0015 21.1687 39.9999 21.25 39.9999C23.8085 39.9999 26.0079 41.5372 26.9749 43.7385M26.9749 43.7385C29.0763 44.5531 31.361 44.9999 33.75 44.9999C36.139 44.9999 38.4237 44.5531 40.5251 43.7385M46.4927 40.0046C46.4122 40.0015 46.3313 39.9999 46.25 39.9999C43.6915 39.9999 41.4921 41.5372 40.5251 43.7385M46.4927 40.0046C49.832 40.1321 52.5 42.8794 52.5 46.2499C52.5 49.7017 49.7018 52.4999 46.25 52.4999C42.7982 52.4999 40 49.7017 40 46.2499C40 45.3566 40.1874 44.5071 40.5251 43.7385M37.5 7.875V22.4999H52.1249C50.6336 15.1532 44.8467 9.36631 37.5 7.875Z" stroke="#6D006F" stroke-width="3"/>
</svg>
