<svg width="60" height="60" viewBox="0 0 60 60" fill="none" xmlns="http://www.w3.org/2000/svg">
<g clip-path="url(#clip0_329_810)">
<path d="M37.9535 48.044C31.6893 54.3082 21.8577 54.8306 14.9984 49.6113C14.3743 49.1364 13.7748 48.614 13.2048 48.044C12.6347 47.4739 12.1123 46.8744 11.6373 46.2502C6.41813 39.3909 6.94062 29.5594 13.2048 23.2952C20.0389 16.4611 46.7923 14.4564 46.7923 14.4564C46.7923 14.4564 44.7877 41.2098 37.9535 48.044Z" stroke="#006F1F" stroke-width="3"/>
<path d="M11.6391 46.2501C12.1141 46.8743 12.6366 47.4739 13.2066 48.0439C13.7766 48.6139 14.3761 49.1363 15.0002 49.6112C18.7501 42.5001 26.2501 33.7501 36.2501 23.7501C23.2501 31.1852 16.2504 40.0001 11.6391 46.2501Z" fill="#006F1F"/>
</g>
<defs>
<clipPath id="clip0_329_810">
<rect width="60" height="60" fill="white"/>
</clipPath>
</defs>
</svg>
