<svg width="60" height="60" viewBox="0 0 60 60" fill="none" xmlns="http://www.w3.org/2000/svg">
<path d="M39.3427 39.4684H39.3426L39.3297 39.4681L39.2745 39.4672C38.1079 39.4469 36.8315 39.4247 35.691 39.5839C34.5277 39.7463 33.2589 40.1264 32.3178 41.1178L33.4057 42.1505L32.3178 41.1179C31.0157 42.4896 30.5183 43.9157 30.6015 45.2623C30.6807 46.5458 31.2747 47.5357 31.7235 48.1257C32.0697 48.5808 32.4939 49.181 32.7133 49.8458C32.9168 50.4623 32.92 51.0434 32.5474 51.639L33.819 52.4346L32.5474 51.639C32.1652 52.2497 31.7747 52.6572 31.3476 52.9328C30.9253 53.2053 30.3883 53.4 29.6369 53.4709C28.0607 53.6196 25.7091 53.214 21.9921 52.0198C14.1196 49.4905 5.26077 39.9491 6.64427 26.7305C8.00919 13.6895 20.0521 4.56061 35.1723 6.8514C42.6446 7.98349 47.4042 11.836 50.2009 16.2489C53.0325 20.7166 53.8481 25.7552 53.3732 29.1437C52.4447 35.7691 47.6181 38.106 44.0717 39.1334C42.7551 39.5148 41.1571 39.4999 39.3427 39.4684Z" stroke="#006F1F" stroke-width="3"/>
<path fill-rule="evenodd" clip-rule="evenodd" d="M20.7992 26.607C20.7992 28.4809 19.2772 30 17.3996 30C15.5221 30 14 28.4809 14 26.607C14 24.7331 15.5221 23.214 17.3996 23.214C19.2772 23.214 20.7992 24.7331 20.7992 26.607ZM24.1988 20.786C26.0764 20.786 27.5984 19.2669 27.5984 17.393C27.5984 15.5191 26.0764 14 24.1988 14C22.3213 14 20.7992 15.5191 20.7992 17.393C20.7992 19.2669 22.3213 20.786 24.1988 20.786ZM39.2008 17.393C39.2008 19.2669 37.6787 20.786 35.8012 20.786C33.9236 20.786 32.4016 19.2669 32.4016 17.393C32.4016 15.5191 33.9236 14 35.8012 14C37.6787 14 39.2008 15.5191 39.2008 17.393ZM42.6004 30C44.4779 30 46 28.4809 46 26.607C46 24.7331 44.4779 23.214 42.6004 23.214C40.7228 23.214 39.2008 24.7331 39.2008 26.607C39.2008 28.4809 40.7228 30 42.6004 30Z" fill="#006F1F"/>
</svg>
