<svg width="60" height="60" viewBox="0 0 60 60" fill="none" xmlns="http://www.w3.org/2000/svg">
<path fill-rule="evenodd" clip-rule="evenodd" d="M29 33.5H36.25C41.2206 33.5 45.25 37.5294 45.25 42.5V45.8568C49.4109 41.8542 52 36.2295 52 30C52 22.0689 47.8028 15.1128 41.5 11.2406V15C41.5 17.8995 39.1495 20.25 36.25 20.25H35.625C34.7275 20.25 34 20.9775 34 21.875V22C34 24.4853 31.9853 26.5 29.5 26.5C27.8431 26.5 26.5 27.8431 26.5 29.5V31C26.5 32.3807 27.6193 33.5 29 33.5ZM38.5 9.70133V15C38.5 16.2426 37.4926 17.25 36.25 17.25H35.625C33.0707 17.25 31 19.3207 31 21.875V22C31 22.8284 30.3284 23.5 29.5 23.5C26.1863 23.5 23.5 26.1863 23.5 29.5V31C23.5 34.0376 25.9624 36.5 29 36.5H36.25C39.5637 36.5 42.25 39.1863 42.25 42.5V48.2767C38.7487 50.6281 34.5346 52 30 52C28.8071 52 27.6382 51.9053 26.5 51.7236V46.2847C26.5 43.5207 25.6819 40.8186 24.1487 38.5189L11.033 18.8453C14.8631 12.3485 21.9255 8 30 8C33.0188 8 35.8886 8.60634 38.5 9.70133ZM40 7.08022C40.5091 7.30264 41.0093 7.54152 41.5 7.79619C49.5205 11.9587 55 20.3395 55 30C55 38.0663 51.1798 45.2403 45.25 49.8116C44.7639 50.1864 44.2635 50.5436 43.75 50.8824C39.8053 53.4851 35.0795 55 30 55C28.2877 55 26.6155 54.8278 25 54.4999C24.4943 54.3973 23.9941 54.2793 23.5 54.1467C12.8444 51.2854 5 41.5588 5 30C5 26.0574 5.91264 22.328 7.53818 19.0114C7.78857 18.5006 8.05586 17.9995 8.33934 17.509C12.6607 10.0315 20.7427 5 30 5C33.5555 5 36.9377 5.74224 40 7.08022ZM9.5106 21.9701C8.53564 24.4556 8 27.163 8 30C8 39.8854 14.5225 48.2532 23.5 51.0248V46.2847C23.5 44.113 22.8572 41.9899 21.6526 40.183L9.5106 21.9701Z" fill="#002B6F"/>
</svg>
