<svg width="60" height="60" viewBox="0 0 60 60" fill="none" xmlns="http://www.w3.org/2000/svg">
<path d="M30.6483 38.292H20.2762L14.0094 43.978C11.3123 46.4251 7.02708 44.1579 7.54256 40.5566L10.2465 21.666C10.7939 17.8411 14.0761 15 17.9473 15H42.0527C45.9239 15 49.2061 17.8411 49.7535 21.666L52.4574 40.5566C52.9729 44.1579 48.6877 46.4251 45.9906 43.978L39.7238 38.292H29.3517" stroke="#002B6F" stroke-width="3"/>
<path d="M42.5 28.75C43.1904 28.75 43.75 29.3096 43.75 30C43.75 30.6904 43.1904 31.25 42.5 31.25C41.8096 31.25 41.25 30.6904 41.25 30C41.25 29.3096 41.8096 28.75 42.5 28.75Z" fill="#002B6F"/>
<path d="M38.75 21.25C39.4404 21.25 40 21.8096 40 22.5C40 23.1904 39.4404 23.75 38.75 23.75C38.0596 23.75 37.5 23.1904 37.5 22.5C37.5 21.8096 38.0596 21.25 38.75 21.25Z" fill="#002B6F"/>
<path d="M22.5 32.5V20M16.25 26.25H28.75M43.75 30V30C43.75 30.6904 43.1904 31.25 42.5 31.25V31.25C41.8096 31.25 41.25 30.6904 41.25 30V30C41.25 29.3096 41.8096 28.75 42.5 28.75V28.75C43.1904 28.75 43.75 29.3096 43.75 30ZM40 22.5V22.5C40 23.1904 39.4404 23.75 38.75 23.75V23.75C38.0596 23.75 37.5 23.1904 37.5 22.5V22.5C37.5 21.8096 38.0596 21.25 38.75 21.25V21.25C39.4404 21.25 40 21.8096 40 22.5Z" stroke="#002B6F" stroke-width="3"/>
</svg>
