<svg width="24" height="24" viewBox="0 0 24 24" fill="none" xmlns="http://www.w3.org/2000/svg">
<g clip-path="url(#clip0_302_3775)">
<path d="M24 12C24 5.37258 18.6274 0 12 0C5.37258 0 0 5.37258 0 12C0 18.6274 5.37258 24 12 24C18.6274 24 24 18.6274 24 12Z" fill="url(#paint0_linear_302_3775)"/>
<path d="M7.46191 8.27593C7.46191 8.43961 7.51045 8.59961 7.60139 8.73571C7.69233 8.8718 7.82158 8.97788 7.9728 9.04052C8.12402 9.10316 8.29042 9.11955 8.45095 9.08761C8.61149 9.05568 8.75895 8.97686 8.87469 8.86112C8.99043 8.74538 9.06926 8.59791 9.10119 8.43738C9.13312 8.27684 9.11673 8.11043 9.05409 7.95921C8.99146 7.80799 8.88538 7.67874 8.74928 7.58781C8.61319 7.49687 8.45318 7.44834 8.2895 7.44834C8.07001 7.44834 7.85951 7.53553 7.70431 7.69073C7.54911 7.84594 7.46191 8.05644 7.46191 8.27593Z" fill="white"/>
<path d="M8.52002 11.9457C8.52002 12.6313 8.72332 13.3015 9.10421 13.8716C9.4851 14.4416 10.0265 14.8859 10.6599 15.1482C11.2933 15.4106 11.9902 15.4793 12.6626 15.3455C13.3351 15.2118 13.9527 14.8816 14.4375 14.3968C14.9223 13.9121 15.2524 13.2944 15.3861 12.622C15.5199 11.9496 15.4512 11.2526 15.1889 10.6192C14.9265 9.98584 14.4822 9.44446 13.9122 9.06357C13.3422 8.68268 12.672 8.47937 11.9864 8.47937C11.067 8.47937 10.1854 8.84459 9.5353 9.49466C8.88523 10.1447 8.52002 11.0264 8.52002 11.9457ZM14.2046 11.9457C14.2032 12.3842 14.072 12.8124 13.8275 13.1762C13.5829 13.5401 13.236 13.8234 12.8306 13.9903C12.4251 14.1571 11.9793 14.2001 11.5495 14.1137C11.1196 14.0274 10.725 13.8156 10.4155 13.5051C10.106 13.1946 9.89536 12.7993 9.81032 12.3692C9.72528 11.9391 9.76961 11.4935 9.93769 11.0885C10.1058 10.6836 10.3901 10.3376 10.7547 10.0941C11.1194 9.8507 11.548 9.72076 11.9864 9.72076C12.5753 9.72256 13.1395 9.95776 13.5553 10.3748C13.9711 10.7919 14.2046 11.3568 14.2046 11.9457Z" fill="white"/>
<path d="M19.0211 9.19183V14.8086C19.0211 15.9294 18.5759 17.0043 17.7833 17.7969C16.9908 18.5894 15.9158 19.0347 14.795 19.0347H9.17826C8.05743 19.0347 6.9825 18.5894 6.18995 17.7969C5.3974 17.0043 4.95215 15.9294 4.95215 14.8086L4.95215 9.19183C4.95215 8.071 5.3974 6.99607 6.18995 6.20352C6.9825 5.41097 8.05743 4.96571 9.17826 4.96571H14.795C15.9158 4.96571 16.9908 5.41097 17.7833 6.20352C18.5759 6.99607 19.0211 8.071 19.0211 9.19183ZM6.27493 14.8086C6.27493 15.5786 6.58082 16.317 7.1253 16.8615C7.66978 17.406 8.40825 17.7119 9.17826 17.7119H14.795C15.565 17.7119 16.3035 17.406 16.848 16.8615C17.3924 16.317 17.6983 15.5786 17.6983 14.8086V9.19183C17.6983 8.42182 17.3924 7.68334 16.848 7.13886C16.3035 6.59438 15.565 6.2885 14.795 6.2885H9.17826C8.40825 6.2885 7.66978 6.59438 7.1253 7.13886C6.58082 7.68334 6.27493 8.42182 6.27493 9.19183L6.27493 14.8086Z" fill="white"/>
</g>
<defs>
<linearGradient id="paint0_linear_302_3775" x1="2.50311" y1="23.2402" x2="22.7722" y2="-0.752968" gradientUnits="userSpaceOnUse">
<stop stop-color="#FBE18A"/>
<stop offset="0.21" stop-color="#FCBB45"/>
<stop offset="0.38" stop-color="#F75274"/>
<stop offset="0.52" stop-color="#D53692"/>
<stop offset="0.74" stop-color="#8F39CE"/>
<stop offset="1" stop-color="#5B4FE9"/>
</linearGradient>
<clipPath id="clip0_302_3775">
<rect width="24" height="24" fill="white" transform="translate(0 24) rotate(-90)"/>
</clipPath>
</defs>
</svg>
