<svg width="60" height="60" viewBox="0 0 60 60" fill="none" xmlns="http://www.w3.org/2000/svg">
<path d="M22.5 37.9933C18.0165 35.3997 15 30.5521 15 25C15 16.7157 21.7157 10 30 10C38.2843 10 45 16.7157 45 25C45 30.5521 41.9835 35.3997 37.5 37.9933M22.5 37.9933V50H25.6689M22.5 37.9933H37.5M25.6689 50C26.5334 51.4945 28.1493 52.5 30 52.5C31.8507 52.5 33.4666 51.4945 34.3311 50M25.6689 50H34.3311M34.3311 50H37.5V37.9933" stroke="#6F0014" stroke-width="3"/>
<path d="M22.5 43.75H37.5M30 37.5V27.5M30 27.5L25 22.5M30 27.5L35 22.5" stroke="#6F0014" stroke-width="2"/>
</svg>
