<svg width="60" height="60" viewBox="0 0 60 60" fill="none" xmlns="http://www.w3.org/2000/svg">
<path d="M29.9545 22.25C29.9545 26.5548 26.5316 30 22.3636 30V33C28.2373 33 32.9545 28.1624 32.9545 22.25H29.9545ZM22.3636 30C18.1957 30 14.7727 26.5548 14.7727 22.25H11.7727C11.7727 28.1624 16.49 33 22.3636 33V30ZM14.7727 22.25C14.7727 17.9452 18.1957 14.5 22.3636 14.5V11.5C16.49 11.5 11.7727 16.3376 11.7727 22.25H14.7727ZM22.3636 14.5C26.5316 14.5 29.9545 17.9452 29.9545 22.25H32.9545C32.9545 16.3376 28.2373 11.5 22.3636 11.5V14.5ZM7.4402 50.4193C9.46309 43.4712 15.4345 38.55 22.3636 38.55V35.55C13.9356 35.55 6.90731 41.5175 4.5598 49.5807L7.4402 50.4193ZM47.6515 29.8676C47.6515 32.3272 45.6274 34.3529 43.0909 34.3529V37.3529C47.2488 37.3529 50.6515 34.0193 50.6515 29.8676H47.6515ZM43.0909 34.3529C40.5544 34.3529 38.5303 32.3272 38.5303 29.8676H35.5303C35.5303 34.0193 38.933 37.3529 43.0909 37.3529V34.3529ZM38.5303 29.8676C38.5303 27.4081 40.5544 25.3824 43.0909 25.3824V22.3824C38.933 22.3824 35.5303 25.716 35.5303 29.8676H38.5303ZM43.0909 25.3824C45.6274 25.3824 47.6515 27.4081 47.6515 29.8676H50.6515C50.6515 25.716 47.2488 22.3824 43.0909 22.3824V25.3824ZM43.0909 43.1206C47.4904 43.1206 51.2798 46.1524 52.5632 50.431L55.4368 49.569C53.8066 44.1344 48.9295 40.1206 43.0909 40.1206V43.1206ZM36.9068 45.3976C38.6098 43.967 40.7582 43.1206 43.0909 43.1206V40.1206C40.013 40.1206 37.1897 41.2419 34.9772 43.1006L36.9068 45.3976ZM22.3636 38.55C27.3582 38.55 31.8388 41.096 34.7225 45.1225L37.1615 43.3757C33.7729 38.6442 28.4218 35.55 22.3636 35.55V38.55ZM34.7225 45.1225C35.8449 46.6897 36.7218 48.4779 37.2871 50.4193L40.1675 49.5807C39.5077 47.3147 38.4818 45.2193 37.1615 43.3757L34.7225 45.1225Z" fill="#6D006F"/>
</svg>
