<svg width="24" height="24" viewBox="0 0 24 24" fill="none" xmlns="http://www.w3.org/2000/svg">
<path d="M24 12C24 5.37258 18.6274 0 12 0C5.37258 0 0 5.37258 0 12C0 18.6274 5.37258 24 12 24C18.6274 24 24 18.6274 24 12Z" fill="#25D366"/>
<path fill-rule="evenodd" clip-rule="evenodd" d="M18.6762 11.6043V11.6072C18.6758 12.8015 18.3761 13.9749 17.8076 15.0171L18.7999 18.7998L15.1023 17.7875C14.0202 18.4119 12.7926 18.7405 11.535 18.74C7.60075 18.7384 4.3999 15.5374 4.3999 11.6043C4.40073 9.69549 5.14384 7.9039 6.49261 6.5567C7.84131 5.20951 9.63407 4.46798 11.5407 4.46873C15.474 4.47031 18.6746 7.67006 18.6762 11.6043ZM16.5158 14.8419L16.6444 14.6253C17.1847 13.7147 17.4707 12.6709 17.4711 11.6067V11.6043C17.4711 8.33538 14.8105 5.67484 11.5402 5.67354C9.95551 5.67292 8.46544 6.28922 7.3444 7.40897C6.22335 8.52871 5.60567 10.0178 5.60512 11.6019C5.60512 14.8733 8.26546 17.5339 11.5354 17.5352C12.6561 17.5357 13.7475 17.2221 14.6917 16.6284L14.9161 16.4874L17.1047 17.0866L16.5158 14.8419ZM13.0769 8.2536C13.137 8.12925 13.1776 8.04527 13.2375 8.00942C13.3118 7.96486 13.6688 7.96486 14.0853 8.11336C14.5018 8.26199 14.8819 8.97428 14.9331 9.31686C14.979 9.62402 14.9981 10.0127 14.8624 10.4398C14.7803 10.6988 14.6706 11.0309 14.4868 11.4562C13.7651 13.1277 12.1451 14.2573 11.8389 14.4708C11.8175 14.4857 11.8025 14.4962 11.7947 14.502L11.7928 14.5035C11.6669 14.5978 10.8233 15.23 9.95029 15.23C9.12902 15.23 8.69855 14.8266 8.50041 14.6409C8.48683 14.6282 8.47435 14.6165 8.4629 14.606C8.2844 14.4426 8.23978 14.2494 8.23978 14.1306C8.23978 14.0117 8.24088 13.8927 8.2461 13.7889C8.24674 13.776 8.24666 13.7627 8.24658 13.7489C8.24597 13.645 8.24521 13.5155 8.55215 13.3877C8.67028 13.3386 8.84541 13.2666 9.03012 13.1907C9.40362 13.0373 9.81629 12.8678 9.87601 12.838C9.96526 12.7934 10.0693 12.7637 10.1884 12.8231C10.2062 12.8321 10.2231 12.8403 10.2392 12.8482C10.3303 12.8928 10.3973 12.9257 10.4858 13.0014C10.5206 13.0312 10.5581 13.062 10.5956 13.0928C10.6703 13.1541 10.745 13.2155 10.7982 13.2689C10.8871 13.3581 10.9835 13.451 11.162 13.347C11.3405 13.243 11.9244 12.8852 12.3971 12.3552C12.9054 11.7854 13.1201 11.2902 13.229 11.0392C13.2503 10.9902 13.2675 10.9505 13.2821 10.9214C13.3714 10.7431 13.3564 10.6391 13.2375 10.5351C13.1185 10.4311 12.7168 10.0894 12.5384 9.97058C12.3599 9.85174 12.3897 9.73283 12.4491 9.56944C12.5087 9.40597 12.94 8.5294 13.0292 8.35111C13.0466 8.3163 13.0624 8.28376 13.0769 8.2536Z" fill="white"/>
</svg>
