<svg width="32" height="32" viewBox="0 0 32 32" fill="none" xmlns="http://www.w3.org/2000/svg">
<path fill-rule="evenodd" clip-rule="evenodd" d="M0 16C0 24.8366 7.16344 32 16 32C24.8366 32 32 24.8366 32 16C32 7.16344 24.8366 0 16 0C7.16344 0 0 7.16344 0 16ZM26.0417 15.3877C26.0396 20.6322 21.7733 24.8996 16.5276 24.9017H16.5237C14.9314 24.9012 13.3668 24.5016 11.9772 23.7437L6.93359 25.0667L8.28334 20.1366C7.45075 18.6937 7.01265 17.057 7.01336 15.3802C7.01545 10.1345 11.2835 5.8667 16.5276 5.8667C19.0727 5.8678 21.4615 6.85861 23.2577 8.65697C25.054 10.4552 26.0427 12.8456 26.0417 15.3877Z" fill="#002B6F"/>
<path fill-rule="evenodd" clip-rule="evenodd" d="M9.21735 22.8064L12.2103 22.0213L12.499 22.1926C13.7131 22.9131 15.1049 23.2944 16.5239 23.2949H16.5271C20.8856 23.2949 24.433 19.7474 24.4347 15.3871C24.4355 13.2741 23.6138 11.2874 22.1208 9.79267C20.6278 8.29794 18.6423 7.47437 16.5302 7.47363C12.1683 7.47363 8.62087 11.0207 8.61914 15.3807C8.61853 16.8749 9.0366 18.3301 9.82818 19.5891L10.0162 19.8883L9.21735 22.8064ZM20.9943 17.4359C21.1601 17.516 21.2721 17.5701 21.3199 17.6499C21.3793 17.749 21.3793 18.225 21.1813 18.7804C20.9831 19.3357 20.0334 19.8425 19.5766 19.9107C19.1671 19.9719 18.6488 19.9975 18.0793 19.8165C17.7341 19.707 17.2913 19.5607 16.7241 19.3157C14.4955 18.3534 12.9894 16.1934 12.7047 15.7852C12.6848 15.7566 12.6709 15.7366 12.6631 15.7262L12.6612 15.7236C12.5354 15.5558 11.6924 14.431 11.6924 13.267C11.6924 12.172 12.2303 11.598 12.4779 11.3338C12.4948 11.3157 12.5104 11.2991 12.5244 11.2838C12.7423 11.0458 12.9999 10.9863 13.1583 10.9863C13.3168 10.9863 13.4755 10.9878 13.614 10.9947C13.631 10.9956 13.6488 10.9955 13.6672 10.9954C13.8057 10.9946 13.9784 10.9936 14.1488 11.4028C14.2144 11.5603 14.3103 11.7938 14.4115 12.0401C14.616 12.5381 14.842 13.0883 14.8818 13.168C14.9412 13.287 14.9808 13.4257 14.9016 13.5845C14.8897 13.6083 14.8787 13.6307 14.8682 13.6522C14.8087 13.7737 14.7649 13.8631 14.6639 13.981C14.6242 14.0274 14.5831 14.0774 14.542 14.1274C14.4603 14.227 14.3785 14.3266 14.3073 14.3975C14.1883 14.516 14.0644 14.6447 14.2031 14.8827C14.3417 15.1207 14.8188 15.8991 15.5255 16.5295C16.2852 17.2071 16.9455 17.4935 17.2802 17.6387C17.3455 17.667 17.3985 17.69 17.4373 17.7094C17.6749 17.8284 17.8136 17.8085 17.9523 17.6499C18.091 17.4913 18.5466 16.9557 18.705 16.7178C18.8635 16.4799 19.022 16.5195 19.2399 16.5988C19.4578 16.6782 20.6266 17.2532 20.8643 17.3722C20.9107 17.3955 20.9541 17.4164 20.9943 17.4359Z" fill="#002B6F"/>
</svg>